<mxfile host="65bd71144e" scale="3" border="0">
    <diagram id="MVHG9jKrJHXn6F27_AaR" name="Page-1">
        <mxGraphModel dx="580" dy="392" grid="1" gridSize="10" guides="1" tooltips="1" connect="1" arrows="1" fold="1" page="1" pageScale="1" pageWidth="583" pageHeight="827" math="0" shadow="0">
            <root>
                <mxCell id="0"/>
                <mxCell id="1" parent="0"/>
                <mxCell id="23" value="" style="group" parent="1" vertex="1" connectable="0">
                    <mxGeometry x="160" y="140" width="80" height="40" as="geometry"/>
                </mxCell>
                <mxCell id="2" value="" style="rounded=0;whiteSpace=wrap;html=1;fillColor=none;" parent="23" vertex="1">
                    <mxGeometry width="80" height="40" as="geometry"/>
                </mxCell>
                <mxCell id="4" value="" style="endArrow=none;html=1;" parent="23" edge="1">
                    <mxGeometry width="50" height="50" relative="1" as="geometry">
                        <mxPoint y="20" as="sourcePoint"/>
                        <mxPoint x="80" y="20" as="targetPoint"/>
                    </mxGeometry>
                </mxCell>
                <mxCell id="5" value="Functions" style="text;html=1;strokeColor=none;fillColor=none;align=center;verticalAlign=middle;whiteSpace=wrap;rounded=0;fontFamily=Georgia;fontSize=10;" parent="23" vertex="1">
                    <mxGeometry width="80" height="20" as="geometry"/>
                </mxCell>
                <mxCell id="6" value="meets" style="text;html=1;strokeColor=none;fillColor=none;align=center;verticalAlign=middle;whiteSpace=wrap;rounded=0;fontFamily=Georgia;fontSize=10;" parent="23" vertex="1">
                    <mxGeometry y="20" width="80" height="20" as="geometry"/>
                </mxCell>
                <mxCell id="26" style="edgeStyle=none;html=1;exitX=1;exitY=0.5;exitDx=0;exitDy=0;entryX=0;entryY=0.5;entryDx=0;entryDy=0;fontFamily=Georgia;fontSize=9;" parent="1" source="25" target="6" edge="1">
                    <mxGeometry relative="1" as="geometry"/>
                </mxCell>
                <mxCell id="25" value="meets(billy, kate)" style="text;html=1;strokeColor=none;fillColor=none;align=center;verticalAlign=middle;whiteSpace=wrap;rounded=0;fontFamily=Georgia;fontSize=8;" parent="1" vertex="1">
                    <mxGeometry x="40" y="160" width="80" height="20" as="geometry"/>
                </mxCell>
                <mxCell id="27" style="edgeStyle=none;html=1;exitX=1;exitY=0.5;exitDx=0;exitDy=0;entryX=0;entryY=0.5;entryDx=0;entryDy=0;fontFamily=Georgia;fontSize=9;" parent="1" source="6" target="15" edge="1">
                    <mxGeometry relative="1" as="geometry">
                        <Array as="points">
                            <mxPoint x="260" y="170"/>
                            <mxPoint x="260" y="190"/>
                        </Array>
                        <mxPoint x="280" y="230" as="targetPoint"/>
                    </mxGeometry>
                </mxCell>
                <mxCell id="28" style="edgeStyle=none;html=1;exitX=1;exitY=0.5;exitDx=0;exitDy=0;fontFamily=Georgia;fontSize=9;" parent="1" edge="1">
                    <mxGeometry relative="1" as="geometry">
                        <mxPoint x="400" y="190" as="targetPoint"/>
                        <mxPoint x="360" y="190" as="sourcePoint"/>
                    </mxGeometry>
                </mxCell>
                <mxCell id="29" value="executed" style="text;html=1;strokeColor=none;fillColor=none;align=center;verticalAlign=middle;whiteSpace=wrap;rounded=0;fontFamily=Georgia;fontSize=9;" parent="1" vertex="1">
                    <mxGeometry x="400" y="180" width="40" height="20" as="geometry"/>
                </mxCell>
                <mxCell id="32" value="" style="rounded=0;whiteSpace=wrap;html=1;fillColor=none;" parent="1" vertex="1">
                    <mxGeometry x="220" y="240" width="80" height="60" as="geometry"/>
                </mxCell>
                <mxCell id="33" value="" style="endArrow=none;html=1;" parent="1" edge="1">
                    <mxGeometry width="50" height="50" relative="1" as="geometry">
                        <mxPoint x="220" y="260" as="sourcePoint"/>
                        <mxPoint x="300" y="260" as="targetPoint"/>
                    </mxGeometry>
                </mxCell>
                <mxCell id="34" value="Functions" style="text;html=1;strokeColor=none;fillColor=none;align=center;verticalAlign=middle;whiteSpace=wrap;rounded=0;fontFamily=Georgia;fontSize=10;" parent="1" vertex="1">
                    <mxGeometry x="220" y="240" width="80" height="20" as="geometry"/>
                </mxCell>
                <mxCell id="35" value="Dog.say()" style="text;html=1;strokeColor=none;fillColor=none;align=center;verticalAlign=middle;whiteSpace=wrap;rounded=0;fontFamily=Georgia;fontSize=10;" parent="1" vertex="1">
                    <mxGeometry x="220" y="260" width="80" height="20" as="geometry"/>
                </mxCell>
                <mxCell id="42" style="edgeStyle=none;html=1;exitX=1;exitY=0.5;exitDx=0;exitDy=0;fontFamily=Georgia;fontSize=9;" parent="1" source="37" target="41" edge="1">
                    <mxGeometry relative="1" as="geometry"/>
                </mxCell>
                <mxCell id="37" value="Cat.say()" style="text;html=1;strokeColor=none;fillColor=none;align=center;verticalAlign=middle;whiteSpace=wrap;rounded=0;fontFamily=Georgia;fontSize=10;" parent="1" vertex="1">
                    <mxGeometry x="220" y="280" width="80" height="20" as="geometry"/>
                </mxCell>
                <mxCell id="38" value="" style="endArrow=none;html=1;fontFamily=Georgia;fontSize=9;" parent="1" edge="1">
                    <mxGeometry width="50" height="50" relative="1" as="geometry">
                        <mxPoint x="220" y="280" as="sourcePoint"/>
                        <mxPoint x="300" y="280" as="targetPoint"/>
                    </mxGeometry>
                </mxCell>
                <mxCell id="40" style="edgeStyle=none;html=1;exitX=1;exitY=0.5;exitDx=0;exitDy=0;entryX=0;entryY=0.5;entryDx=0;entryDy=0;fontFamily=Georgia;fontSize=9;" parent="1" source="39" target="37" edge="1">
                    <mxGeometry relative="1" as="geometry">
                        <Array as="points">
                            <mxPoint x="200" y="270"/>
                            <mxPoint x="200" y="290"/>
                        </Array>
                    </mxGeometry>
                </mxCell>
                <mxCell id="39" value="Cat.say(&quot;Meow&quot;)" style="text;html=1;strokeColor=none;fillColor=none;align=center;verticalAlign=middle;whiteSpace=wrap;rounded=0;fontFamily=Georgia;fontSize=9;" parent="1" vertex="1">
                    <mxGeometry x="90" y="260" width="90" height="20" as="geometry"/>
                </mxCell>
                <mxCell id="41" value="executed" style="text;html=1;strokeColor=none;fillColor=none;align=center;verticalAlign=middle;whiteSpace=wrap;rounded=0;fontFamily=Georgia;fontSize=9;" parent="1" vertex="1">
                    <mxGeometry x="340" y="280" width="40" height="20" as="geometry"/>
                </mxCell>
                <mxCell id="43" value="" style="endArrow=none;dashed=1;html=1;dashPattern=1 3;strokeWidth=2;fontFamily=Georgia;fontSize=9;" parent="1" edge="1">
                    <mxGeometry width="50" height="50" relative="1" as="geometry">
                        <mxPoint x="40" y="220" as="sourcePoint"/>
                        <mxPoint x="444.44444444444446" y="220" as="targetPoint"/>
                    </mxGeometry>
                </mxCell>
                <mxCell id="10" value="" style="rounded=0;whiteSpace=wrap;html=1;fillColor=none;" parent="1" vertex="1">
                    <mxGeometry x="280" y="140" width="80" height="60" as="geometry"/>
                </mxCell>
                <mxCell id="11" value="" style="endArrow=none;html=1;" parent="1" edge="1">
                    <mxGeometry width="50" height="50" relative="1" as="geometry">
                        <mxPoint x="280" y="160" as="sourcePoint"/>
                        <mxPoint x="360" y="160" as="targetPoint"/>
                    </mxGeometry>
                </mxCell>
                <mxCell id="12" value="Arguments" style="text;html=1;strokeColor=none;fillColor=none;align=center;verticalAlign=middle;whiteSpace=wrap;rounded=0;fontFamily=Georgia;fontSize=10;" parent="1" vertex="1">
                    <mxGeometry x="280" y="140" width="80" height="20" as="geometry"/>
                </mxCell>
                <mxCell id="13" value="(Cat, Dog)" style="text;html=1;strokeColor=none;fillColor=none;align=center;verticalAlign=middle;whiteSpace=wrap;rounded=0;fontFamily=Georgia;fontSize=9;" parent="1" vertex="1">
                    <mxGeometry x="280" y="160" width="80" height="20" as="geometry"/>
                </mxCell>
                <mxCell id="14" value="" style="endArrow=none;html=1;fontFamily=Georgia;fontSize=10;" parent="1" edge="1">
                    <mxGeometry width="50" height="50" relative="1" as="geometry">
                        <mxPoint x="360" y="180" as="sourcePoint"/>
                        <mxPoint x="280" y="180" as="targetPoint"/>
                    </mxGeometry>
                </mxCell>
                <mxCell id="15" value="(Dog, Cat)" style="text;html=1;strokeColor=none;fillColor=none;align=center;verticalAlign=middle;whiteSpace=wrap;rounded=0;fontFamily=Georgia;fontSize=9;" parent="1" vertex="1">
                    <mxGeometry x="280" y="180" width="80" height="20" as="geometry"/>
                </mxCell>
            </root>
        </mxGraphModel>
    </diagram>
</mxfile>